<svg xmlns="http://www.w3.org/2000/svg" width="416" height="450" viewBox="0 0 416 450"><defs><clipPath id="3pdka"><path d="M30.64 220.81h385.163v229.191H30.64z"/></clipPath></defs><g><g><g><g/><g clip-path="url(#3pdka)"><path fill="#f8efff" d="M216.547 225.396c21.561-11.43 39.24 1.011 58.672 10.098 19.745 9.23 43.159 12.084 61.088 25.038 11.05 7.983 15.377 19.236 26.437 27.373 25.695 18.906 49.529 32.2 52.72 66.733 1.965 21.271-4.297 43.004-27.058 49.758-28.974 8.6-53.511-14.733-80.77-18.132-43.868-5.47-19.528 23.393-28.068 47.875-16.29 46.7-130.288-23.051-153.13-38.736-35.706-24.52-92.895-73.922-95.746-121.424-1.718-28.621 39.635-46.84 66.774-39.699 20.294 5.34 76.74 63.905 96.826 36.502 11.54-15.745-.51-33.316 22.255-45.386"/></g></g><g><path fill="#ded5ff" d="M202.533 335.472c-18.94-5.314-34.47.47-51.539 4.694-17.346 4.292-37.913 5.619-53.662 11.64-9.709 3.713-13.508 8.943-23.224 12.727-22.57 8.788-43.508 14.97-46.31 31.024-1.727 9.888 3.775 19.992 23.769 23.133 25.452 3.997 47.005-6.85 70.95-8.43 38.536-2.544 17.155 10.875 24.656 22.257 14.31 21.71 114.45-10.717 134.514-18.01 31.367-11.397 81.604-34.365 84.109-56.449 1.509-13.306-34.818-21.777-58.658-18.456-17.826 2.482-67.41 29.71-85.054 16.97-10.138-7.32.447-15.489-19.551-21.1"/></g><g><path fill="#947ce5" d="M140.477 72.904l7.886.267c2.481.084 4.696.872 6.272 2.079 3.482 1.906 5.698 4.905 5.56 8.225l-.428 10.39c-.176 4.235-4.118 7.688-9.476 8.903-1.306.382-2.74.588-4.256.537l-30.248-1.023-5.341-.18-40.196-1.361 1.246-30.171z"/></g><g><path fill="#7a62e5" d="M72.873 70.616l-.97 23.518 40.196 1.36 5.341.181 30.247 1.023c1.518.052 2.95-.155 4.258-.537 3.433-.78 6.27-2.483 7.922-4.718l-.1 2.422c-.175 4.235-4.118 7.687-9.474 8.903-1.308.382-2.74.588-4.258.537l-30.248-1.023-5.341-.18-40.196-1.361 1.247-30.171z"/></g><g><path fill="#947ce5" d="M71.627 100.788l.972-23.517 40.197 1.36 5.34.18 30.247 1.024c1.518.05 2.93.354 4.201.823 3.36 1.008 6.048 2.9 7.511 5.24l.1-2.422c.175-4.235-3.472-7.945-8.714-9.518a13.425 13.425 0 0 0-4.2-.824l-30.248-1.023-5.341-.18-40.196-1.361-1.246 30.172z"/></g><g><path fill="#7a62e5" d="M67.578 100.612l4.856.164C79.04 101 84.608 96.04 84.87 89.7l.295-7.14c.262-6.341-4.881-11.664-11.488-11.887l-4.856-.165c-6.607-.223-12.174 4.737-12.436 11.078l-.295 7.14c-.261 6.342 4.881 11.663 11.488 11.887"/></g><g><path fill="#7a62e5" d="M139.536 92.104l.321-7.776c.229-5.528-3.113-10.224-7.708-11.272a8.7 8.7 0 0 1 1.648-.112l3.325.112c5.414.184 9.596 5.33 9.34 11.496l-.32 7.776c-.255 6.167-4.85 11.016-10.264 10.832l-3.325-.112a8.599 8.599 0 0 1-1.633-.224c4.667-.734 8.388-5.192 8.616-10.72"/></g><g><path fill="#7a62e5" d="M99.696 90.755l.321-7.776c.229-5.528-3.112-10.225-7.707-11.272a8.695 8.695 0 0 1 1.647-.113l3.326.113c5.413.183 9.595 5.329 9.34 11.495l-.32 7.776c-.255 6.166-4.85 11.016-10.264 10.833l-3.326-.112a8.71 8.71 0 0 1-1.633-.224c4.668-.734 8.388-5.192 8.616-10.72"/></g><g><path fill="#bf2953" d="M139.267 103.053l-60.09-2.017c-6.164-.207-11.365 4.637-11.618 10.82l-3.879 94.56c2.02 12.636 6.07 23.78 13.983 28.906l56.1 1.883c6.162.207 11.364-4.637 11.617-10.818l4.585-111.768c.254-6.18-4.536-11.359-10.698-11.566"/></g><g><path fill="#bf2953" d="M92.22 104.23c-7.677 43.714-8.427 87.429-12.05 131.144 5.594.01 10.265-4.41 10.497-10.056l4.649-113.297c.124-3.052-1.093-5.815-3.097-7.791"/></g><g><path fill="#e5507a" d="M85.347 101.247l-8.967-.301c-5.741-.193-10.588 4.32-10.823 10.079L62.21 192.58c1.105 17.779 4.725 35.796 15.456 42.745l2.177.073c.113.003.217-.023.327-.022 3.624-43.715 4.374-87.43 12.05-131.144-1.778-1.755-4.173-2.896-6.873-2.986"/></g><g><path fill="#cc3660" d="M67.605 146.936c1.649 1.106 3.673 1.648 5.675 2.066a59.744 59.744 0 0 0 11.867 1.26c1.586.01 3.212-.038 4.705.443 1.493.48 2.845 1.642 2.91 3.07.103 2.185-2.6 3.545-4.959 4.05-2.446.521-4.974.703-7.488.646-4.659-.106-9.411-1.085-13.215-3.515-2.18-1.392-4.184-3.376-5.2-5.63-1.3-2.886.313-5.716 1.577-8.496-.446.98 3.281 5.538 4.128 6.106"/></g><g><path fill="#cc3660" d="M67.605 181.946c1.649 1.106 3.673 1.648 5.675 2.067a59.823 59.823 0 0 0 11.867 1.26c1.586.009 3.212-.039 4.705.442 1.493.48 2.845 1.643 2.91 3.07.103 2.185-2.6 3.545-4.959 4.05-2.446.521-4.974.703-7.488.646-4.659-.106-9.411-1.085-13.215-3.515-2.18-1.391-4.184-3.376-5.2-5.63-1.3-2.886.313-5.716 1.577-8.496-.446.98 3.281 5.538 4.128 6.106"/></g><g><path fill="#d3bca6" d="M102.515 392.543c1.026.664 1.898 1.292 3.092 1.774l2.841 1.147c.461.187.95.376 1.434.28.595-.118 1.053-.64 1.443-1.155 3.178-4.182 4.803-9.524 6.358-14.726-.232.764-8.76-1.003-9.585-1.438-.81-.43-1.616-1.026-2.532-.971-.901.055-1.785 3.617-2.118 4.39-.872 2.018-2.387 3.93-3.86 5.54-.395.432-.821.877-.967 1.445-.182.713.138 1.49.678 1.992.823.764 2.118 1.02 3.06 1.622l.156.1"/></g><g><path fill="#404980" d="M116.723 397.392c-1.18-3.939.14-7.71.14-7.71-1.29-.97-2.23-1.55-2.936-1.83-.826-.332-1.336-.262-1.71.051-1.01.834-1.039 3.416-3.73 4.625-4.149 1.872-8.438-4.04-9.136-5.052a1.993 1.993 0 0 1-.098-.146c-6.416 6.747-6.493 11.235-6.493 11.235l16.874 10.848c2.313-2.919 6.048-4.716 9.74-4.486 1.825.112 3.578.718 5.122 1.693-1.364-1.54-2.922-2.988-4.458-4.257a.264.264 0 0 1-.057-.053 6.566 6.566 0 0 1-.578-.52 9.928 9.928 0 0 1-2.674-4.394z"/></g><g><path fill="#404980" d="M109.64 409.416l17.178 11.041c3.9-4.282 1.56-9.463-2.316-13.834-1.543-.975-3.297-1.581-5.12-1.693-3.693-.23-7.429 1.567-9.742 4.486"/></g><g><path fill="#d3bca6" d="M18.886 310.985c-.31 1.182-.632 2.207-.716 3.491-.066 1.02-.132 2.04-.2 3.06-.032.496-.059 1.019.184 1.448.3.528.939.798 1.55 1.009 4.967 1.707 10.549 1.575 15.977 1.422-.798.02-1.794-8.633-1.637-9.553.154-.903.467-1.856.128-2.708-.334-.839-3.995-.56-4.832-.636-2.19-.195-4.482-1.035-6.472-1.93-.534-.239-1.09-.504-1.673-.464-.736.05-1.374.598-1.68 1.268-.469 1.02-.305 2.33-.583 3.413l-.046.18"/></g><g><path fill="#404980" d="M18.737 326.002c3.37-2.355 7.365-2.281 7.365-2.281.517-1.53.774-2.605.818-3.362.057-.888-.17-1.35-.585-1.61-1.107-.697-3.568.087-5.56-2.091-3.077-3.354 1.193-9.278 1.936-10.26a2.18 2.18 0 0 1 .108-.137c-8.418-3.98-12.705-2.646-12.705-2.646L5.1 323.037c3.497 1.283 6.373 4.267 7.313 7.845.464 1.767.439 3.624-.004 5.394 1.033-1.777 1.922-3.71 2.645-5.568a.387.387 0 0 1 .033-.07c.092-.246.198-.488.313-.711a9.931 9.931 0 0 1 3.335-3.917z"/></g><g><path fill="#404980" d="M5.104 323.04L0 342.81c5.289 2.365 9.476-1.482 12.412-6.53.443-1.772.468-3.628.005-5.395-.94-3.578-3.817-6.562-7.313-7.845"/></g><g><path fill="#1ab5b2" d="M95.048 218.543c-1.51 16.139-4.888 32.113-4.8 48.405.036 7.807-.127 15.599-.128 23.37l.71-.003c.216-23.47 6.809-36.12 11.3-59.06.228-1.182.478-2.406 1.14-3.396.845-1.27 2.243-1.977 3.587-2.625a169.784 169.784 0 0 1 43.253-13.995c-.237-.641-.482-1.305-.716-1.979-4.585.54-9.18 1.089-13.775 1.638-2.566.316-5.132.621-7.685 1.023-7.894 1.269-15.628 3.49-23.488 4.95-1.728.333-6.508 1.794-9.398 1.672"/></g><g><path fill="#1ab5b2" d="M107.429 369.863c-1.932 2.864-3.87 5.72-5.567 8.744-.204.363-.402.829-.162 1.17.141.2.395.285.63.358 1.66.519 3.301 1.1 4.917 1.746.743.298 1.947 1.19 2.736.807.735-.357 1.346-2.696 1.68-3.427 1.027-2.24 2.052-4.483 3.077-6.725 8-17.46 23.91-56.41 32.227-73.718.47-.974.941-1.948 1.402-2.921 2.35-4.976 2.79-9.475 2.047-13.68-1.597-9.012-8.633-29.554-14.125-37.78-2.295-3.448-4.813-6.998-6.772-10.777a247.67 247.67 0 0 0-3.953 11.212c7.055 13.026 15.206 34.24 19.762 48 .2.604-1.645 3.285-1.964 3.912a467.02 467.02 0 0 1-2.162 4.198 483.887 483.887 0 0 1-4.392 8.215 651.366 651.366 0 0 1-9.076 16.006c-3.128 5.357-5.317 12.743-8.51 18.061-1.328 2.213-10.356 24.466-11.795 26.6"/></g><g><path fill="#1ac2bf" d="M98.524 308.008c1.733-.225 3.374-1.165 4.999-2.228-7.962.377-15.924.72-23.888.986-17.739.592-35.486.907-53.235.943 1.913 2.783 2.976 6.11 3.154 9.473.09 1.723-1.82 7.698-.99 8.7.94 1.136 9.907.411 11.641.505 3.46.186 6.925.371 10.391.242 7.592-.286 15.245-.202 22.884-.02 7.432.162 14.74.149 22.095-.193a97.22 97.22 0 0 1 5.851-.07c-6.675-3.44-9.89-9.257-2.902-18.338"/></g><g><path fill="#1ac2bf" d="M163.491 247.907c-3.853-15.738-8.527-23.684-13.377-36.667a169.783 169.783 0 0 0-43.253 13.995c-1.344.649-2.742 1.356-3.587 2.625-.661.99-.912 2.214-1.14 3.398-4.491 22.937-11.084 35.588-11.3 59.058l-.71.005c-.012 7.646.128 14.94-.495 22.677-.073.902-.166 1.802-.239 2.703.844 1.748 1.563 3.496 1.563 5.245 8.102 8.102 14.287 5.664 18.558-.511.729-5.044 1.744-10.047 2.55-15.08.96-6 1.221-12.053 2.487-18.017 3.036-14.309 6.478-28.551 11.023-42.463a246.36 246.36 0 0 1 3.955-11.212c1.958 3.78 4.476 7.33 6.772 10.779 5.49 8.225 12.527 28.766 14.124 37.778.743 4.207.302 8.706-2.048 13.68-.46.974-.93 1.948-1.401 2.92-8.317 17.309-24.228 56.26-32.227 73.72-1.575 3.446-3.147 6.88-4.732 10.336 1.425 1.035 3.2 2.31 5.047 3.432.18.12.362.22.532.329 9.803-13.483 26.166-46.764 36-61.605 6.533-9.872 13.206-20.09 17.345-31.118-.315-11.226-2.775-35.113-5.447-46.007"/></g><g><path fill="#d3bca6" d="M217.982 38.306c-.45 2.541-5.86 6.789-7.647 8.66-2.644 2.766-5.388 5.437-8.184 8.05-5.583 5.218-11.388 10.19-17.113 15.25-5.847 5.168-11.795 10.377-17.054 16.157-4.411 4.849-9.58 9.144-12.032 15.462-.563 1.455-1.003 2.982-1.04 4.542-.073 3.094 1.568 6.173 4.174 7.84 2.607 1.668 6.09 1.864 8.868.5 2.243-1.1 3.92-3.063 5.53-4.971 2.413-2.86 5.166-5.496 7.475-8.43 3.527-4.478 6.497-9.391 10.267-13.659 4.547-5.144 9.418-10.038 13.844-15.336A326.752 326.752 0 0 0 224.57 46.52c1.636-2.41 3.438-6.93 5.7-8.69.388-.303.767-.61 1.125-.944.665-.663 1.175-1.434 1.69-2.216a94.94 94.94 0 0 0 4.279-7.13 55.345 55.345 0 0 1-2.546 1.702c-.725.464-1.515.91-2.432.907-1.014-.005-1.984-.576-2.996-.703-.942-.12-1.847.155-2.652.569a7.387 7.387 0 0 0-.365-2.761c-.83-2.532-2.675-4.634-3.095-7.009-.324-.277-.322-.734-.27-1.112.308-2.052 3.08-6.803.077-8.503-.716.705-.877 1.77-1.227 2.705-1.005 2.708-3.29 4.785-4.112 7.595-.384 1.323-.362 2.752-.268 4.164.2 3.14.747 6.302.786 9.441.012 1.263-.063 2.531-.283 3.77"/></g><g><path fill="#d3bca6" d="M37.744 4.639c-.145 1.442-.009 2.9.368 4.284.18.692.422 1.443.092 2.088-.2.404-.595.684-.892 1.019-.676.736-.932 1.74-1.13 2.698a33.315 33.315 0 0 0-.649 5.335c-.985-.15-1.987-.286-2.98-.428-1.164-.168-2.342-.337-3.4-.793-.771-.337-1.462-.805-2.188-1.204a11.687 11.687 0 0 0-1.615-.71 79.278 79.278 0 0 0 5.886 8.068c.458.55.922 1.107 1.447 1.589.974.888 2.15 1.558 3.1 2.481.73.72 1.3 1.558 1.804 2.448 7.63 26.362 16.473 51.43 30.251 75.25 1.978 3.421 4.53 7.169 8.446 7.69 3.148.418 6.312-1.4 8.902-2.954 3.277-1.967 7.284-2.1 4.66-6.675-5.407-9.432-10.79-18.76-16.718-27.81-4.76-7.27-7.193-15.772-11.844-23.104-4.7-7.412-8.613-15.476-12.64-23.266-.553-1.067-1.097-2.142-1.679-3.28-.867-1.488-1.787-2.962-2.43-4.577-.851-2.123-1.18-4.438-1.176-6.739.008-.926.061-1.847-.03-2.761-.18-1.745-.911-3.385-1.545-5.022A48.75 48.75 0 0 1 39.387 0c-.955 1.394-1.484 2.996-1.643 4.639"/></g><g><path fill="#c2a695" d="M25.183 16.657c.05.095.108.183.166.272.562.194 1.097.437 1.614.709.727.399 1.418.867 2.19 1.204 1.057.456 2.235.625 3.398.793.994.143 1.996.278 2.982.428.07-1.786.289-3.572.647-5.335.199-.959.455-1.962 1.131-2.698.296-.335.693-.615.893-1.019.33-.645.088-1.396-.093-2.088a11.847 11.847 0 0 1-.368-4.284c-.66-.832-1.522-1.514-2.363-2.172a8.009 8.009 0 0 0-.946-.667c.729 2.356 1.46 4.698 2.198 7.05.123.386.245.787.216 1.203-.028.401-.231.834-.623 1.017-.513.253-1.127-.022-1.614-.29.331.894-.326 2.02-1.298 2.224-.306.072-.714.119-.783.418-.049.174.06.342.149.502.25.527.146 1.219-.26 1.668a1.69 1.69 0 0 1-1.678.466c.515.352.166 1.257-.454 1.461-.613.211-1.276-.024-1.862-.279-.564-.247-1.127-.509-1.62-.868-.375-.264-.685-.58-1.06-.844a4.277 4.277 0 0 0-1.105-.58c.147.584.326 1.155.543 1.709"/></g><g><path fill="#d3bca6" d="M24.649 14.947c.396.14.771.337 1.104.581.375.263.686.58 1.061.844.494.36 1.056.62 1.62.867.586.256 1.248.491 1.861.28.62-.204.97-1.11.454-1.462a1.692 1.692 0 0 0 1.68-.465c.406-.45.508-1.142.258-1.669-.088-.16-.197-.327-.149-.502.07-.298.478-.345.785-.417.97-.204 1.629-1.33 1.297-2.225.487.269 1.1.544 1.613.291.394-.183.596-.616.624-1.018.03-.415-.092-.816-.216-1.203a2062.29 2062.29 0 0 1-2.198-7.05 3.155 3.155 0 0 0-.576-.277c-.561-.21-1.237-.244-1.77.065-.477.265-.777.764-1.05 1.228-.393.668-.793 1.41-.63 2.145-1.288-.137-2.638.834-2.869 2.088-.764-.26-1.553.486-1.746 1.25-.193.764-.009 1.56-.054 2.341-.35-.366-1.037-.162-1.328.263-.277.427-.275.965-.223 1.463.08.869.227 1.736.452 2.582"/></g><g><path fill="#c2a695" d="M111.293 85.817c-1.213.504-2.509.796-3.743 1.246.071 1.347.132 2.693.181 4.04 1.721.258 3.374 1.157 4.931 2.055 3.554 2.022 7.109 4.052 10.663 6.085 1.735.994 3.544 2.01 5.441 2.533a22.188 22.188 0 0 1-.209-2.21c-2.094.137-4.355-.694-6.64-2.67-3.71-3.222-6.422-7.463-8.27-12.096-.622.141-1.192.493-1.783.761-.19.093-.381.175-.57.256"/></g><g><path fill="#6d55be" d="M145.204 60.04c1.247-3.46.404-7.768-3.583-8.434-2.934-.49-4.877 2.224-7.57 1.948-2.612-.266-2.789-2.146-4.943-3.493-2.017-1.262-4.968-1.836-7.19-.484-2.045 1.244-1.056 3.324-2.704 4.753-1.818 1.577-3.48-.264-5.842-.405-7.266-.434-9.922 5.77-10.146 11.894-.114 3.112.38 6.206 1.256 9.179.692 2.33 2.005 4.602 2.75 6.933.12 1.704.23 3.417.317 5.132 1.235-.45 2.531-.742 3.745-1.245.19-.083.38-.166.57-.258.59-.268 1.162-.619 1.784-.76-1.212-3.02-2.053-6.201-2.569-9.37-.308-1.863-.136-4.29 1.614-4.926 2.067-.756 3.747 1.793 4.525 3.893.231-3.258.539-6.723 2.477-9.331 1.948-2.61 6.153-3.725 8.369-1.349.947 1.008 1.468 2.538 2.756 3.013 2.143-.842 3.248-2.103 5.659-2.615 1.532-.326 3.515.636 4.952.113 1.772-.644 3.088-2.288 3.773-4.188"/></g><g><path fill="#d3bca6" d="M113.642 84.8c1.848 4.632 4.56 8.873 8.27 12.095 2.284 1.976 4.546 2.807 6.64 2.67 3.186-.2 5.995-2.611 7.873-6.556 3.197-6.728 3.064-14.539 2.874-22.015-.06-2.428-.131-4.867-.193-7.297a27.84 27.84 0 0 0-2.63.416c-2.413.513-3.519 1.774-5.66 2.615-1.289-.475-1.81-2.004-2.758-3.013-2.215-2.375-6.42-1.26-8.37 1.349-1.937 2.61-2.244 6.076-2.476 9.332-.778-2.1-2.456-4.649-4.524-3.891-1.751.634-1.922 3.06-1.614 4.924.516 3.17 1.357 6.352 2.568 9.37"/></g><g><path fill="#333c73" d="M125.223 132.434c10.22-7.665 12.788-15.337 11.407-23.91-1.14.839-2.3 1.642-3.55 2.304-.358.197-.718.383-1.087.558-5.202 2.468-10.973 4.406-16.815 3.665-5.119-.648-8.683-3.3-12.13-6.541-6.856 16.512 5.634 32.195 22.175 23.924"/></g><g><path fill="#333c73" d="M71.171 104.74c-1.347.909-2.685 1.832-3.951 2.853 1.057 2.209 2.115 4.415 3.169 6.629 2.38 9.124 4.751 18.247 7.13 27.37 3.338 12.765 7.125 24.847 8.587 38.11 1.497 13.593 1.754 27.275 2.26 40.927.028.765.085 1.6.612 2.16.763.812 2.087.644 3.183.402 1.054-.232 2.104-.502 3.156-.75.409-41.867 1.355-83.1-24.146-117.701"/></g><g><path fill="#404980" d="M156.418 155.497c.257-3.758.473-7.516.94-11.22.64-5.272 1.785-10.434 4.272-15.346 3.771-7.43 10.09-13.195 14.855-20.012-1.548-1.325-3.044-2.663-4.484-3.917-2.395-2.085-4.517-4.447-6.763-6.67-.384-.381-.773-.76-1.168-1.13-1.246-1.172-3.486-5.076-5.229-5.272-2.223-.25-6.029 4.276-7.622 5.531a175.007 175.007 0 0 1-8.486 6.281c-2.093 1.454-4.05 3.101-6.101 4.593 1.38 8.472-1.188 16.054-11.407 23.63-16.542 8.173-29.03-7.325-22.176-23.644a101.5 101.5 0 0 1-1.966-1.874c-1.113-1.09-2.432-1.948-3.67-2.9a29.78 29.78 0 0 1-7.772-8.947c-.227-.401-.464-.828-.867-1.055-.918-.517-1.62.73-2.226 1.195-4.882 3.757-10.336 6.604-15.378 10.005 25.5 34.601 24.554 75.834 24.146 117.702 19.094-4.501 37.817-11.3 57.408-12.153.999-.043 2.053-.087 2.894-.62 1.293-.818 1.665-2.492 1.85-3.997.997-8.13-.21-16.287-1.181-24.356-1.012-8.424-.646-15.991.01-24.319.047-.456.084-.955.121-1.505"/></g><g><path fill="#c2a695" d="M224.775 20.034c-.391.288-.98.552-1.415.279.337 2.308 2.182 4.41 3.011 6.942.3.908.422 1.84.365 2.761.805-.414 1.711-.688 2.653-.569 1.013.127 1.983.699 2.997.703.916.004 1.706-.443 2.43-.907a54.788 54.788 0 0 0 2.547-1.701s.009.005.006-.01c.295-.509.572-1.03.84-1.557-.525.502-1.114.926-1.569 1.274-.488.364-1.113.865-1.764 1.15a2.332 2.332 0 0 1-.75.225c-.511.063-.683.08-1.058-.291-.21-.22.004-.619-.233-.855-.857-.848-2.078.185-2.65-1.354-.234-.655.052-.972-.498-1.578-.422-.475-1.053-.537-1.143-1.264-.056-.543.189-1.11.455-1.614-.346.156-.734.26-1.074.072-.326-.193-.454-.584-.49-.941-.086-.812.137-1.602.376-2.359a53.06 53.06 0 0 1 .933-2.69c-.113.2-.217.385-.327.539a15.64 15.64 0 0 1-3.642 3.745"/></g><g><path fill="#d3bca6" d="M228.993 21.675c-.266.504-.511 1.07-.455 1.614.09.726.721.789 1.143 1.263.55.607.264.924.497 1.579.573 1.54 1.794.506 2.65 1.354.238.236.024.635.234.855.375.37.546.354 1.058.29.252-.026.501-.106.75-.224.65-.286 1.275-.786 1.764-1.15.455-.348 1.044-.773 1.569-1.274l.005-.008c.71-.697 1.283-1.529 1.17-2.457-.165-1.258-1.766-1.357-2.076-2.246-.12-.361.276-.795.1-1.265-.152-.431-.624-.826-.999-1.099-.99-.735.595-3.102-1.69-3.16-1.074-.028-2.003 1.115-2.61 1.825.741-1.26 1.433-2.638 1.203-3.874-.069-.403-.237-.807-.543-1.111-.311-.294-.786-.468-1.17-.35-1.275.39-2.145 2.29-2.856 3.52a54.14 54.14 0 0 0-.932 2.69c-.24.757-.462 1.547-.376 2.358.037.358.164.748.49.94.34.19.728.085 1.074-.07"/></g><g><path fill="#d3bca6" d="M131.937 110.67a6.88 6.88 0 0 0-.305-1.198c-.643-1.817-1.794-3.429-2.437-5.32-1.071-3.15-2.915-3.216-5.874-4.911-3.554-2.032-7.107-4.065-10.662-6.086-1.558-.897-3.21-1.796-4.93-2.055.19 5.1.183 10.188-.19 15.208-.462 6.28-.034 10.9 4.028 16.207.528.69 1.102 1.36 1.816 1.854.6.416 1.286.697 1.987.905 4.46 1.328 9.534-.403 12.67-3.84 2.358-2.584 4.498-7.061 3.897-10.764"/></g><g><path fill="none" stroke="#9b786e" stroke-linecap="round" stroke-linejoin="round" stroke-miterlimit="20" stroke-width=".61" d="M134.104 75.9c-.888 2.32-.593 4.733.856 6.974.311.481.68.994.377 1.483-.511.832-2.603 1.154-4.387 1.347"/></g><g><path fill="#444" d="M123.719 78.886a9.84 9.84 0 0 1 3.738-.533c.124-1.284-.258-2.586-1.055-3.257-1.068-.9-2.455-.328-3.099 1.271a4.75 4.75 0 0 0-.2 2.803c.198-.11.402-.21.616-.284"/></g><g><path fill="#444" d="M136.472 78.623c1.255.17 3.085.287 4.356 1.097.067-.292.122-.595.136-.916.088-1.9-.844-3.504-2.086-3.581-1.24-.077-2.318 1.405-2.408 3.304l.002.096"/></g><g><path fill="none" stroke="#9b786e" stroke-linecap="round" stroke-linejoin="round" stroke-miterlimit="20" stroke-width=".66" d="M121.05 73.79c1.812-5.274 4.585-6 6.518-1.71"/></g><g><path fill="none" stroke="#9b786e" stroke-linecap="round" stroke-linejoin="round" stroke-miterlimit="20" stroke-width=".66" d="M134.96 72.239c1.836-4.018 4.285-3.196 5.833 1.961"/></g><g><path fill="none" stroke="#e5e5e5" stroke-linecap="round" stroke-linejoin="round" stroke-miterlimit="20" stroke-width="2.81" d="M126.86 89.36c1.699 5.053 4.45 5.965 6.47 2.153"/></g><g><path fill="#d9436d" d="M143.675 102.895l-.64-.165c-1.808 1.144-3.64 2.24-5.575 3.138l9.065 21.05 10.31 31.975.458-10.564c-1.85-19.97-13.618-45.434-13.618-45.434"/></g><g><path fill="#d9436d" d="M96.86 103.922l.73-.202c2.062 1.403 4.15 2.75 6.358 3.852L93.611 133.42 81.854 172.68l-.524-12.97c2.11-24.521 15.53-55.79 15.53-55.79"/></g><g><path fill="#e5cb3d" d="M272.185 107.626l-7.112.456c-2.238.143-4.213.889-5.6 1.978-3.083 1.747-4.992 4.405-4.765 7.272l.708 8.975c.29 3.657 3.957 6.53 8.832 7.43 1.192.293 2.492.43 3.86.342l27.282-1.748 4.817-.308 36.252-2.323-2.058-26.06z"/></g><g><path fill="#e5ba3a" d="M333.156 103.72l1.605 20.313-36.253 2.322-4.817.31-27.281 1.748a12.758 12.758 0 0 1-3.86-.344c-3.126-.575-5.74-1.969-7.3-3.854l.165 2.093c.29 3.657 3.957 6.53 8.83 7.43 1.193.293 2.494.43 3.861.342l27.282-1.748 4.817-.308 36.253-2.324-2.06-26.06z"/></g><g><path fill="#e5c75d" d="M335.219 129.78l-1.606-20.313-36.254 2.323-4.816.308-27.282 1.748c-1.369.088-2.634.39-3.768.832-3.003.968-5.37 2.682-6.619 4.747l-.166-2.092c-.289-3.658 2.889-6.97 7.574-8.482 1.133-.442 2.4-.743 3.767-.83l27.281-1.75 4.817-.308 36.253-2.323 2.06 26.06z"/></g><g><path fill="#b27c29" d="M338.868 129.517l-4.38.28c-5.958.382-11.139-3.748-11.572-9.226l-.487-6.166c-.433-5.479 4.045-10.228 10.004-10.61l4.38-.28c5.96-.382 11.14 3.75 11.574 9.227l.487 6.166c.432 5.478-4.046 10.228-10.006 10.61"/></g><g><path fill="#c08833" d="M273.632 124.211l-.532-6.716c-.377-4.776 2.496-8.933 6.612-9.97a8.161 8.161 0 0 0-1.49-.05l-3 .192c-4.883.313-8.5 4.884-8.079 10.21l.532 6.716c.42 5.325 4.72 9.39 9.602 9.076l3-.192c.505-.032.992-.12 1.467-.24-4.237-.501-7.735-4.251-8.112-9.026"/></g><g><path fill="#c08833" d="M309.563 121.9l-.531-6.716c-.378-4.775 2.495-8.933 6.611-9.969a8.165 8.165 0 0 0-1.49-.05l-3 .191c-4.883.313-8.5 4.884-8.08 10.21l.532 6.715c.42 5.327 4.72 9.39 9.602 9.078l3-.192a8.317 8.317 0 0 0 1.468-.24c-4.238-.502-7.735-4.252-8.112-9.027"/></g><g><path fill="#484781" d="M274.211 133.67l54.197-3.458c5.557-.355 10.406 3.686 10.826 9.025l3.496 44.396c.011.19-.01.36.014.559.032.238.058.508.09.75l1.02 12.969c.846 10.736-.559 23.302-5.603 33.02-10.177 19.604-35.7 17.387-54.914 18.614-5.557.353-10.405-3.688-10.826-9.026l-7.602-96.54c-.421-5.339 3.744-9.955 9.302-10.309"/></g><g><path fill="#5f618a" d="M326.454 243.69c-3.368 1.436-6.806 2.681-10.352 3.63-1.521-1.402-2.546-3.105-2.725-5.029l-9.457-101.416c-.482-5.155 4.88-9.66 11.974-10.06l11.078-.627c7.094-.4 13.235 3.455 13.716 8.61 1.33 14.251 2.072 28.537 2.536 42.83.044 1.354.1 2.706.162 4.056.553 11.92 1.574 23.69-1.556 35.445-1.54 5.78-3.995 11.61-8.397 16.631-.561.641-3.621 3.389-6.979 5.93"/></g><g><path fill="#404980" d="M399.677 328.86c2.15-5.26 3.577-11.799 2.717-17.45-.214-1.4-.539-2.782-.816-4.158.726-.005 1.451-.009 2.173.007l.758-.169c.242 1.35.523 2.696.694 4.057.7 5.681-.89 12.176-3.179 17.386-.898 2.07-2.105 4.034-3.68 5.563a7.603 7.603 0 0 1-1.034-.94c.966-1.297 1.74-2.77 2.367-4.296"/></g><g><path fill="#333c73" d="M306.707 315.688c1.59.466 3.398.44 4.838.135 3.753-.799 7.508-1.581 11.267-2.354 7.52-1.545 15.05-3.044 22.584-4.527 5.125-1.008 10.252-2.01 15.38-3.01 2.563-.5 5.127-1 7.69-1.502.716-.14 7.658-1.163 7.692-1.51a45.145 45.145 0 0 0-.167 6.409c-.198.025-.389.05-.59.086-9.715 1.533-18.263 4.45-27.514 7.84-13.33 4.884-29.389 10.53-44.47 15.904-1.214.433-3.014-4.493-3.22-5.231-.627-2.244-.74-4.614-.63-6.932.13-2.743.583-5.61 2.26-7.785.119-.157.254-.315.434-.394.62-.27 1.158.472 1.564 1.013.697.928 1.732 1.522 2.882 1.858"/></g><g><path fill="#333c73" d="M245.96 242.465a493.193 493.193 0 0 1 5.595-11.533c7.357-2.363 15.989-.228 23.68 2.007 7.19 2.097 14.38 4.192 21.56 6.29 1.466.425 2.986.879 4.092 1.9 1.78 1.638 2.07 4.286 2.214 6.689 1.073 19.09.156 32.744-.314 51.857-.016.496-.031.99-.044 1.505-.19 4.635-.682 9.737.194 14.18.493 2.46 1.366 4.972 2.386 7.46.424 1.058.869 2.105 1.322 3.152.433 1.003 1.246 2.221 1.434 3.293.295 1.682-2.292 3.068-3.734 3.53-1.507.48-3.12.532-4.697.4-.755-.064-1.51-.17-2.24-.375-2.023-.568-4.074-1.573-5.528-3.104-1.956-2.058-2.221-4.684-2.428-7.373-.308-3.993-.62-8.047-.755-12.042-.621-5.442-1.34-10.873-1.814-16.33-.89-10.159-2.382-14.795-4.162-24.848a340.697 340.697 0 0 0-2.075-10.7c-.065-2.56-1.874-6.002-2.651-8.46-1.661-5.3-1.661-5.3-4.084-8.217-8.454 15.976-15.959 27.34-24.494 43.707-3.082 5.906-6.165 11.813-8.67 17.962-1.32 3.267-2.512 6.645-3.046 10.107a24.44 24.44 0 0 0-.193 1.491 30.963 30.963 0 0 0-.048 5.116c.203 3.204.825 6.385 1.426 9.55 4.402 22.975 7.115 46.337 10.159 69.601-1.196-.26-2.465-.44-3.841-.424-.39.004-.778.027-1.166.068-5.914-29.115-19.977-59.159-23.808-87.628 6.479-24.622 14.524-44.932 25.73-68.83"/></g><g><path fill="#262f66" d="M277.995 249.967c.777 2.459 2.586 5.9 2.652 8.46-2.227 3.53-8.728 8.805-11.179 12.216-8.165 11.405-15.23 17.426-22.14 29.585a190.483 190.483 0 0 0-6.972 13.452l-2.656-.153c.536-3.464 1.726-6.841 3.046-10.107 2.507-6.15 5.589-12.057 8.671-17.964 8.536-16.367 16.04-27.73 24.494-43.706 2.422 2.918 2.422 2.918 4.084 8.217"/></g><g><path fill="#d3bca6" d="M385.524 298.118h.01c1.18-.035 2.348-.062 3.517-.078l.01.001c.643.642 1.298 1.276 1.943 1.919l3.951 3.867c-2.728.741-5.318 2.161-7.521 4.112a169.16 169.16 0 0 0-11.44 1.396 45.305 45.305 0 0 1 .167-6.41c.13-1.478.327-2.957.603-4.426 2.94-.16 5.858-.29 8.76-.381"/></g><g><path fill="#262f66" d="M275.228 232.945c-7.69-2.236-16.323-4.37-23.678-2.007.06-.109.108-.217.168-.326.276-.533.552-1.096.839-1.64 2.507-.802 5.241-1.136 7.88-1.108 5.525.056 10.926 1.485 16.39 2.3 11.585 1.726 23.614.679 34.732-3.004.102.219.194.45.286.679 3.957 15.674 2.414 26.682.842 47.462-1.013 13.338-4.4 20.497-5.115 37.036-.866-3.522-1.273-7.205-1.718-11.052l-3.117-.099.044-1.506c.47-19.112 1.388-32.767.313-51.857-.143-2.402-.432-5.05-2.212-6.689-1.107-1.02-2.627-1.474-4.093-1.9-7.18-2.096-14.37-4.193-21.561-6.29"/></g><g><path fill="#7a62e5" d="M401.286 294.369c.05-.003.088 0 .137-.002a48.271 48.271 0 0 0-.386 3.724c-.178 2.522-.149 5.032.237 7.506.09.554.188 1.109.306 1.656-4.722.015-9.437.255-14.14.688 2.203-1.952 4.793-3.371 7.521-4.113a6661.95 6661.95 0 0 1-3.951-3.867c-.645-.642-1.3-1.275-1.944-1.918h-.01l-.42-.421c-.224-.222-.448-.435-.662-.656 2.105-.967 4.274-1.84 6.518-2.268 2.244-.427 4.527-.372 6.794-.33"/></g><g><path fill="#262f66" d="M305.473 315.276c-.37-.276-.682-.583-.894-.898-.769-1.143-.611-2.875-1.049-4.158 4.367-1.434 8.785-2.565 13.478-3.583 18.255-3.963 39.364-6.993 59.759-8.137a45.733 45.733 0 0 0-.602 4.426c-15.086 2.973-30.186 5.868-45.259 8.905-4.292.864-8.582 1.74-12.868 2.633-2.105.437-4.21.88-6.312 1.328-.957.202-2.09.644-3.062.666-.948.023-2.252-.482-3.19-1.183"/></g><g><path fill="#262f66" d="M303.298 315.053a3.564 3.564 0 0 1-.414-.607c-.943-1.74-.545-4.23-.447-6.127.122-2.377.205-4.761.302-7.139l3.117.098c.445 3.848.853 7.53 1.718 11.053.292 1.183.892 2.317 1.212 3.415.286.987-.274 1.357-1.386 1.203-1.523-.213-3.138-.75-4.102-1.896"/></g><g><path fill="#7a62e5" d="M387.43 307.938a160.07 160.07 0 0 1 14.142-.688c.276 1.376.6 2.76.815 4.16.86 5.65-.567 12.19-2.718 17.45-.625 1.525-1.4 2.997-2.365 4.295-1.695-1.884-2.681-4.835-3.1-7.558-.645-4.263-.74-9.02-3.384-12.162-1.438-1.688-3.443-2.671-5.46-3.38a18.674 18.674 0 0 1 2.07-2.117"/></g><g><path fill="#7a62e5" d="M246.3 414.338c.26 3 .382 6.004.366 8.973l.367 2.132a6.994 6.994 0 0 0-.419.063c-1.955.348-3.85.916-5.806 1.244-5.678.967-12.22-.307-17.484-2.341-1.514-.6-2.99-1.346-4.284-2.273 1.898-1.733 4.85-2.783 7.59-3.254 4.266-.735 9.044-.935 12.192-3.651 1.707-1.455 2.691-3.487 3.42-5.521a19.21 19.21 0 0 1 4.059 4.619z"/></g><g><path fill="#404980" d="M404.41 307.255c-.891-.017-1.786-.013-2.68-.008a26.564 26.564 0 0 1-.378-1.656c-.476-2.475-.513-4.984-.292-7.507.094-1.242.262-2.486.476-3.724 1.3.031 2.622.066 3.894.253a40.217 40.217 0 0 0-.534 3.569c-.258 2.39-.269 4.757.107 7.114.1.606.214 1.202.342 1.79z"/></g><g><path fill="#d3bca6" d="M249.048 399.285c1.653.36 3.216.88 4.87 1.291.303 3.377.576 6.773.804 10.133l.002.01.123 1.83c-.06.05-.112.11-.173.16a1210.973 1210.973 0 0 1-6.25 6.46c-.447-1.692-1.173-3.318-2.118-4.829v-.01c-.436-5.109-1.218-10.235-2.266-15.401a11.71 11.71 0 0 1 1.165-.068c1.378-.017 2.645.163 3.843.424"/></g><g><path fill="#262f66" d="M248.83 352.823c1.603 14.802 3.663 31.307 5.079 47.747-1.654-.411-3.218-.93-4.871-1.292-3.045-23.264-5.756-46.627-10.159-69.603-.601-3.163-1.223-6.343-1.426-9.548a30.744 30.744 0 0 1 .049-5.116c.046-.496.113-.993.19-1.491l2.656.153c4.669 12.438 7.039 25.963 8.482 39.15"/></g><g><path fill="#7a62e5" d="M257.863 425.404c-.791-.09-1.604-.17-2.406-.23-2.825-.196-5.632-.179-8.425.264l-.367-2.132a98.77 98.77 0 0 0-.365-8.973c.945 1.511 1.673 3.137 2.119 4.83 2.094-2.148 4.178-4.305 6.25-6.46.062-.051.113-.111.174-.162l.487-.511c.965 2.093 1.826 4.237 2.247 6.465.413 2.237.342 4.51.282 6.773.012.047.003.087.004.136"/></g><g><path fill="#404980" d="M223.326 424.411c5.265 2.035 11.807 3.309 17.485 2.341 1.955-.328 3.85-.896 5.805-1.243.136-.023.283-.048.42-.063 2.792-.443 5.6-.46 8.424-.264.802.06 1.615.14 2.406.23-.038 1.059-.065 2.127-.261 3.162a79.415 79.415 0 0 0-2.059-.252c-2.892-.26-5.774-.3-8.631.127-1.977.3-3.895.81-5.862 1.1-5.704.822-12.2-.627-17.406-2.8-2.07-.872-4.023-2.029-5.547-3.56.272-.376.585-.728.943-1.049 1.294.926 2.77 1.672 4.283 2.271"/></g><g><path fill="#d3bca6" d="M373.196 46.935c-.51.292-1.172.69-1.817.898-.25.086-.502.138-.743.147-.47.016-.64.021-.916-.31-.164-.216.101-.555-.074-.77-.644-.804-1.943.033-2.207-1.357-.104-.581.213-.845-.193-1.405-.304-.44-.887-.543-.824-1.174.033-.474.378-.97.703-1.389-.347.111-.72.178-1.003 0-.284-.177-.332-.539-.306-.837.017-.188.049-.366.09-.533l3.107.106a.95.95 0 0 1 .205-.37c.381-.522.94-1.112 1.486-1.748v-.01c.68-.575 1.735-1.525 2.716-1.426 2.107.193.23 2.162 1.015 2.864.298.265.661.64.735 1.022.074.437-.36.783-.302 1.101.112.8 1.59.982 1.52 2.097-.058.795-.699 1.479-1.465 2.022-.012 0-.012.012-.024.012-.566.426-1.205.79-1.703 1.06"/></g><g><path fill="#c2a695" d="M362.134 40.022c.36.286.945.1 1.371-.145a16.557 16.557 0 0 0 4.002-3.043 5.51 5.51 0 0 0 .397-.444 37.15 37.15 0 0 0-1.324 2.293c-.274.482-.534.987-.673 1.52a3.629 3.629 0 0 0-.09.533c-.027.298.022.66.305.837.284.178.655.111 1.003 0-.325.419-.67.915-.702 1.39-.064.63.52.733.823 1.173.406.56.089.824.193 1.405.264 1.39 1.564.553 2.207 1.358.175.214-.09.554.074.768.276.332.445.327.916.31.24-.007.493-.06.744-.145.644-.209 1.307-.605 1.816-.899.498-.27 1.137-.633 1.703-1.06-.335.453-.683.883-1.03 1.325l-.012.01c-.877.471-1.78.92-2.683 1.348-.76.355-1.57.702-2.405.642-.93-.068-1.735-.624-2.647-.803-.85-.158-1.724.025-2.548.34.203-.801.26-1.63.148-2.44-.33-2.27-1.676-4.231-1.588-6.273"/></g><g><path fill="#bf2953" d="M278.74 122.509a185.548 185.548 0 0 0 2.099-5.437c6.506-7.16 13.075-15.393 9.436-24.494a18.962 18.962 0 0 0-2.384-2.321c2.964-1.62 5.396-3.961 6.333-6.935l.233-.262c2.824 2.11 4.847 5.17 5.537 9.19.601 3.495.497 8.645-.937 13.024v.011a3714.58 3714.58 0 0 0-17.65 15.371l-.57.294a16.158 16.158 0 0 1-2.097 1.559"/></g><g><path fill="#bf2953" d="M237.152 165.28c1.495 3.52 4.73 6.043 7.056 9.139v.01c.279.366.533.721.774 1.099.484.754.897 1.535 1.263 2.338l-.275.097c-.026-.044-.075-.064-.123-.074-5.204-.716-10.522.157-15.803.005-2.73-.074-5.583-.507-8.09-1.47.49-1.602.623-3.36.604-5.011a43 43 0 0 0-1.282-10.061c-1.337-5.332-3.71-10.541-3.665-16.019.051-5.633 2.716-11.1 6.675-15.442 3.375-3.706 7.659-6.65 12.25-9.041 1.232 5.027 2.44 10.066 3.42 15.135 1.21 6.163-1.755 12.4-3.168 18.486 0 .01 0 .023-.011.023-.843 3.664-1.132 7.266.375 10.786"/></g><g><path fill="#d9436d" d="M217.613 145.334c-.046 5.477 2.328 10.687 3.667 16.019 2.055 8.207 4.621 22.888-9.198 19.128-5.501-1.496-6.86-2.176-6.35-7.85.295-3.27-.443-7.986-2.707-10.413-1.877-2.015-4.137-2.217-5.421-5.14-2.017-4.585-.56-10.664 2.39-14.513 1.952-2.548 3.674-3.844 1.95-7.077-2.337-4.386-5.222-5.604-3.453-11.533 1.955-6.553 7.208-6.709 12.755-8.35 1.873-.554 22.303-7.344 22.045-8.375l.041.165c.973 4.496 2.09 8.976 3.208 13.456-4.593 2.391-8.875 5.334-12.252 9.04-3.958 4.343-6.624 9.81-6.675 15.443"/></g><g><path fill="#d3bca6" d="M363.575 31.57c2.47 1.68-.92 5.651-1.549 7.424-.122.324-.205.734.058.99.024.01.037.03.05.042-.088 2.041 1.258 4.002 1.588 6.272.11.811.055 1.64-.148 2.44-.286.109-.583.24-.857.37-1.057.51-2.087 1.117-3.264 1.3l-2.516 2.002c-.933.979-1.89 1.96-2.847 2.927.4-1.038.677-2.115.883-3.191.499-2.739.538-5.528.903-8.295.152-1.239.399-2.492.977-3.625 1.247-2.39 3.714-4.07 5.108-6.375.481-.799.812-1.714 1.614-2.281"/></g><g><path fill="#7a62f2" d="M230.752 92.032a23.83 23.83 0 0 1-.005-4.77l.012-.012c.945 5.433 3.07 10.839 5.272 16.01a499.705 499.705 0 0 0 6.114 13.753c2.135 4.613 4.368 9.263 5.343 14.201.975 4.925.552 10.273-2.317 14.347-1.97 2.8-4.92 4.793-7.19 7.36a17.504 17.504 0 0 0-1.19 1.55c1.413-6.086 4.378-12.323 3.168-18.486-.98-5.068-2.187-10.108-3.42-15.136-1.117-4.479-2.234-8.96-3.205-13.455l-.043-.164c-1.086-5.031-2.018-10.092-2.54-15.198"/></g><g><path fill="#d3bca6" d="M280.835 117.075c-.058.057-.105.102-.152.159-3.918 4.099-10.818 3.527-13.908-.05a17.165 17.165 0 0 1-.922-1.897c-2.675-6.29-1.859-13.6.83-20.17a23.031 23.031 0 0 1 2.539-.604c4.824-.868 9.803-1.079 14.475-2.504a21.894 21.894 0 0 0 4.19-1.749 18.879 18.879 0 0 1 2.385 2.32c3.638 9.102-2.93 17.333-9.437 24.495"/></g><g><path fill="#7a62f2" d="M326.454 91.868c1.32.836 2.664 1.662 4.065 2.397-5.24 5.333-10.705 10.476-16.458 15.32-8.793 7.392-15.484 15.199-18.757 25.899-3.079 10.031-2.997 20.695-3.495 31.014-.572 12.008-.723 24.023-.247 36.019-5.48-3.904-11.221-7.347-16.802-10.311.74-4.939 2.455-9.91 3.636-14.634 3.011-12.024 5.346-24.444 9.525-36.198 3.673-10.317 11.501-26.999 13.831-38.437a2290.564 2290.564 0 0 0 18.541-16.217c.405.538.844 1.052 1.331 1.532 1.4 1.406 3.115 2.527 4.83 3.616"/></g><g><path fill="#d3bca6" d="M365.9 40.199c.139-.534.4-1.038.674-1.522.407-.773.853-1.537 1.322-2.291.871-1.033 2-2.636 3.247-2.898.383-.078.788.106 1.014.374.24.29.311.65.324 1.013-.023 1.092-.878 2.246-1.784 3.3v.012c-.546.634-1.105 1.226-1.486 1.746a.958.958 0 0 0-.205.37z"/></g><g><path fill="#d3bca6" d="M222.87 32.558c2.328-.244 4.676-.507 7.066-.428a7.524 7.524 0 0 0 2.104-.24c1.44 6.292 2.096 13.214 2.673 19.444.583 6.381 1.223 12.604 3.039 18.774 1.82 6.18 3.949 12.285 5.21 18.606.512 2.564.793 5.548-1.036 7.477-1.776 1.873-4.99 1.895-7.266.632-2.275-1.26-3.774-3.506-4.927-5.784-5.34-10.562-4.246-23.247-5.147-34.696a400.932 400.932 0 0 1-.87-14.331c-.124-2.875.64-6.853-.846-9.454"/></g><g><path fill="#d3bca6" d="M341.308 67.744c4.354-4.06 8.634-8.18 12.778-12.408.957-.97 1.914-1.949 2.846-2.929l2.517-2.001c1.176-.182 2.206-.79 3.264-1.3.272-.13.57-.262.857-.37.822-.315 1.697-.499 2.548-.34.91.179 1.714.736 2.647.804.834.06 1.643-.287 2.404-.644a60.485 60.485 0 0 0 2.683-1.346 104.474 104.474 0 0 1-5.23 5.994c-.607.638-1.213 1.287-1.943 1.817-.578.428-1.218.758-1.821 1.142a18.716 18.716 0 0 0-2.977 2.293c-2.179 2.002-3.92 4.429-5.626 6.823-.022.023-.034.056-.058.079-8.19 9.874-16.612 19.688-25.682 28.908-1.4-.735-2.745-1.56-4.064-2.397-1.715-1.088-3.43-2.21-4.83-3.617a13.623 13.623 0 0 1-1.331-1.53c7.08-6.244 14.111-12.564 21.018-18.978"/></g><g><path fill="#d3bca6" d="M270.84 145.656l-12.844.433c-3.662-6.524 3.606-16.08 4.267-23.803.377-.173.75-.371 1.142-.468.256-.637.512-1.273.756-1.92l.1-.268c2.584 2.602 5.874 6.288 10.055 5.432 2.192-.448 3.316-1.749 4.979-2.915 2.763 7.648-4.714 15.641-8.455 23.509"/></g><g><path fill="#c2a695" d="M274.187 126.612c-1.763.464-2.819-.822-4.278-1.987-1.968-1.571-3.88-3.215-5.649-4.996a74.7 74.7 0 0 0 1.207-3.214c.133-.38.264-.747.385-1.125.263.64.574 1.28.922 1.896 3.09 3.576 9.99 4.149 13.908.05.046-.057.094-.102.152-.16-.675 1.83-1.374 3.65-2.099 5.438-.647 1.62-2.14 2.963-3.718 3.771a4.17 4.17 0 0 1-.83.327"/></g><g><path fill="#d9436d" d="M275.52 80.492a30.055 30.055 0 0 0-4.959 1.908c-3.492 1.693-6.637 4.002-9.312 6.671-2.395 2.374-4.442 5.053-6.997 7.289-1.97 1.73-4.334 3.23-6.932 3.892 1.042 2.983 2.096 5.977 3.152 8.973 2.291-6.148 8.132-11.239 14.656-13.607a24.983 24.983 0 0 1 3.152-3.92l-.001.002a24.98 24.98 0 0 0-3.15 3.918 15.88 15.88 0 0 1 1.551-.503 22.68 22.68 0 0 1 2.54-.604c4.823-.868 9.802-1.08 14.474-2.505a21.7 21.7 0 0 0 4.19-1.75c2.965-1.62 5.397-3.96 6.335-6.934l.232-.262c-4.893-3.669-12.15-4.504-18.931-2.568"/></g><g><path fill="#bf2953" d="M258.516 123.725c-.996.166-2.026.068-3.027-.229-1.68-4.758-3.35-9.517-5.019-14.265 2.293-6.149 8.133-11.239 14.656-13.607a16.08 16.08 0 0 1 1.553-.504c-2.687 6.57-3.504 13.88-.83 20.17-.12.379-.252.748-.384 1.127a75.23 75.23 0 0 1-1.207 3.214l-.1.267a88.891 88.891 0 0 1-.756 1.921c-1.233.306-2.365 1.127-3.58 1.587-.418.157-.86.271-1.306.319"/></g><g><path fill="#876fff" d="M242.135 117.015c-2.197-4.745-4.998-9.341-7.81-13.784-1.26-1.989-3.107-3.822-4.1-5.925-.435-.917-.688-1.904-.939-2.883-.749-2.93-1.902-6.023-2.166-9.017 3.671.663 7.21.305 10.92.354.24.002 4.548-.246 4.5-.5.667 3.515 1.899 6.82 3.082 10.183.562 1.602 1.122 3.213 1.696 4.814a3494.72 3494.72 0 0 0 3.151 8.973c1.67 4.749 3.34 9.508 5.02 14.265 1 .298 2.03.395 3.026.23a5.357 5.357 0 0 0 1.304-.32c.83-.313 1.63-.746 2.439-1.118-.224 2.614-1.077 4.547-.172 7.15a10.554 10.554 0 0 0 3.99 5.221c.572.39 1.191.73 1.867.908.846.224 1.742.19 2.62.154 3.258-.135 6.41-.278 7.68-3.454.704-1.76 1.38-3.498 1.579-5.393.045-.44-.405-4.811-.53-4.726a16.238 16.238 0 0 0 1.536-1.191l.57-.295c5.863-5.144 11.752-10.257 17.65-15.381.904-.769 1.807-1.56 2.7-2.34-2.332 11.44-10.16 28.122-13.834 38.438-4.178 11.755-6.513 24.175-9.524 36.199-1.18 4.722-2.897 9.694-3.636 14.634 5.58 2.963 11.323 6.405 16.802 10.31 11.133 7.943 21.158 17.754 26.317 29.315-12.765 4.188-26.572 5.38-39.87 3.426-6.272-.923-12.472-2.544-18.812-2.605-3.03-.03-6.168.351-9.047 1.263-.228.074-.454.148-.669.22-.088.256-.163.514-.288.772-.297-3.792.597-7.36 1.343-11.043.92-4.538 1.116-9.117 2.136-13.603.759-3.299 1.079-6.703 1-10.084-1.985-5.905-3.804-11.87-5.742-17.79-.04-.151-.093-.282-.135-.435-.457-1.384-.938-2.768-1.55-4.09a18.422 18.422 0 0 0-1.262-2.338 19.495 19.495 0 0 0-.774-1.109c-2.326-3.096-5.562-5.62-7.056-9.139-1.508-3.52-1.219-7.122-.364-10.809.367-.54.773-1.061 1.19-1.55 2.268-2.566 5.219-4.561 7.189-7.36 2.87-4.074 3.292-9.422 2.317-14.347-.975-4.938-3.208-9.589-5.344-14.2"/></g><g><path fill="#d3bca6" d="M232.807 32.895c-.128.357-.188.735-.3 1.098-2.68 2.304-5.57 3.987-8.746 3.9-.287-2.21-.608-4.619-1.442-6.082a15.75 15.75 0 0 1-.611-1.164c-.33-.778-.504-1.598-.68-2.426a92.415 92.415 0 0 1-1.268-7.43c.483.773.987 1.52 1.51 2.265.437.628.93 1.263 1.656 1.555.805.324 1.742.153 2.582.373.783.201 1.417.727 1.933 1.338a6.802 6.802 0 0 1 1.109-2.223c1.41-1.88 3.497-3.067 4.536-4.945.338-.13.473-.52.544-.856.366-1.841-.417-6.767 2.468-7.238.357.829.167 1.784.167 2.69-.009 2.622 1.182 5.122.998 7.772-.09 1.245-.531 2.45-1.026 3.618-1.092 2.6-2.465 5.104-3.43 7.755"/></g><g><path fill="#c2a695" d="M231.957 18.486c.224.37.611.785 1.038.693-.953 1.85-3.04 3.036-4.45 4.916a6.829 6.829 0 0 0-1.11 2.225c-.515-.611-1.15-1.137-1.932-1.34-.84-.219-1.776-.048-2.583-.372-.726-.292-1.219-.927-1.654-1.554a50.774 50.774 0 0 1-1.511-2.267s-.009.002-.002-.01a32.435 32.435 0 0 1-.203-1.591c.267.595.608 1.144.864 1.587.279.466.626 1.093 1.056 1.546.161.18.335.327.527.433.386.219.517.288.924.093.232-.117.182-.525.438-.649.932-.442 1.591.829 2.502-.292.38-.48.248-.84.864-1.177.474-.267.994-.117 1.28-.704.207-.443.182-1.002.12-1.514.228.242.505.456.83.405.316-.057.533-.347.667-.64.31-.659.368-1.403.404-2.12.044-.867.061-1.727.062-2.584.03.207.057.397.097.563.356 1.53.954 3.009 1.772 4.353"/></g><g><path fill="#d3bca6" d="M228.126 18.509c.061.513.086 1.072-.12 1.515-.286.588-.806.436-1.28.703-.617.336-.485.697-.865 1.178-.91 1.12-1.57-.15-2.501.292-.258.124-.207.532-.439.649-.407.195-.538.125-.925-.094a2.051 2.051 0 0 1-.526-.432c-.43-.454-.777-1.081-1.056-1.547-.257-.442-.596-.991-.864-1.587l-.002-.009c-.355-.82-.561-1.71-.196-2.46.506-1.015 1.804-.582 2.313-1.236.203-.267.018-.764.298-1.106.248-.316.74-.499 1.116-.609 1.004-.303.452-2.824 2.279-2.133.86.321 1.255 1.591 1.524 2.39-.212-1.308-.35-2.7.2-3.675.174-.32.427-.607.76-.766.334-.15.761-.144 1.03.081.894.743 1.02 2.635 1.216 3.907 0 .857-.018 1.718-.062 2.584-.035.719-.094 1.461-.403 2.122-.135.292-.352.58-.667.64-.327.05-.603-.164-.83-.407"/></g><g><path fill="none" stroke="#9b786e" stroke-linecap="round" stroke-linejoin="round" stroke-miterlimit="20" stroke-width=".61" d="M277.58 98.5c-.684 2.276-1.936 4.446-3.621 6.272-.363.394-.764.806-.858 1.303-.16.847.62 1.481 1.322 1.946"/></g><g><path fill="#444" d="M286.452 104.503a11.908 11.908 0 0 0-3.292-1.911c.303-1.037 1.079-1.883 2.037-2.08 1.28-.262 2.383.732 2.459 2.223a3.344 3.344 0 0 1-.724 2.235 4.531 4.531 0 0 0-.48-.467"/></g><g><path fill="#444" d="M274.77 100.17c-1.189-.473-2.88-1.282-4.28-1.172.025-.305.07-.61.155-.914.501-1.802 1.836-2.814 2.984-2.264 1.147.553 1.671 2.46 1.172 4.262-.008.032-.023.059-.031.088"/></g><g><path fill="none" stroke="#9b786e" stroke-linecap="round" stroke-linejoin="round" stroke-miterlimit="20" stroke-width=".66" d="M289.168 99.51c-.945-3.308-3.394-5.137-5.758-4.296"/></g><g><path fill="none" stroke="#9b786e" stroke-linecap="round" stroke-linejoin="round" stroke-miterlimit="20" stroke-width=".66" d="M276.517 94.87c-1.189-4.043-3.542-5.593-5.607-3.695"/></g><g><path fill="none" stroke="#e5e5e5" stroke-linecap="round" stroke-linejoin="round" stroke-miterlimit="20" stroke-width="2.81" d="M276.53 114.799c-2.273 1.972-4.93.42-6.25-3.649"/></g><g><path fill="#4a518c" d="M281.285 118.013a50.606 50.606 0 0 0 2.757-1.826c.42-.19.888-.3 1.334-.447l-3.39 15.024c-1.615 15.96 6.018 35.775 6.018 35.775 1.775 9.61 11.007 24.997 11.007 24.997l-5.973.858c-9.714-6.155-17.087-46.849-17.087-46.849-1.135-6.174-.36-13.76.664-19.742a42.153 42.153 0 0 1 4.67-7.79"/></g><g><path fill="#343873" d="M238.981 140.417c6.987-11.608 14.855-21.003 14.855-21.003l.714-.024c1.642 1.476 3.509 2.808 5.498 4.054l-13.927 17.598-10.411 16.433c1.327-5.74 3.187-11.436 3.271-17.058"/></g></g></g></svg>